<!DOCTYPE svg PUBLIC "-//W3C//DTD SVG 1.1//EN" "http://www.w3.org/Graphics/SVG/1.1/DTD/svg11.dtd">
<svg version="1.1" id="Capa_1" xmlns="http://www.w3.org/2000/svg" xmlns:xlink="http://www.w3.org/1999/xlink" x="0px" y="0px"
	 viewBox="0 0 341.231 341.231" style="enable-background:new 0 0 341.231 341.231;" xml:space="preserve">
<g>
	<path style="fill:#F3F3F3;" d="M170.616,0C76.538,0,0,76.538,0,170.616c0,38.893,13.434,76.942,37.827,107.139
		c2.604,3.222,7.326,3.724,10.547,1.122c3.222-2.603,3.724-7.325,1.122-10.547C27.25,240.792,15,206.09,15,170.616
		C15,84.809,84.809,15,170.616,15s155.616,69.809,155.616,155.616s-69.809,155.616-155.616,155.616
		c-28.885,0-57.081-7.969-81.539-23.045c-3.526-2.175-8.146-1.077-10.32,2.449c-2.173,3.526-1.077,8.146,2.449,10.32
		c26.826,16.536,57.743,25.276,89.41,25.276c94.078,0,170.616-76.538,170.616-170.616S264.693,0,170.616,0z"/>
	<path style="fill:#F3F3F3;" d="M115.378,170.616c0,30.458,24.78,55.238,55.238,55.238s55.238-24.78,55.238-55.238
		c0-14.959-5.883-28.967-16.566-39.442c-2.957-2.9-7.706-2.854-10.606,0.104c-2.9,2.958-2.854,7.706,0.104,10.606
		c7.782,7.631,12.068,17.835,12.068,28.732c0,22.187-18.051,40.238-40.238,40.238s-40.238-18.051-40.238-40.238
		s18.051-40.238,40.238-40.238c4.142,0,7.5-3.358,7.5-7.5s-3.358-7.5-7.5-7.5C140.158,115.378,115.378,140.158,115.378,170.616z"/>
	<path style="fill:#F3F3F3;" d="M278.019,170.616c0,4.142,3.358,7.5,7.5,7.5s7.5-3.358,7.5-7.5
		c0-67.493-54.91-122.403-122.403-122.403c-4.142,0-7.5,3.358-7.5,7.5s3.358,7.5,7.5,7.5
		C229.838,63.213,278.019,111.394,278.019,170.616z"/>
	<path style="fill:#F3F3F3;" d="M146.381,170.616c0,13.363,10.872,24.234,24.234,24.234s24.234-10.872,24.234-24.234
		s-10.872-24.234-24.234-24.234S146.381,157.253,146.381,170.616z M179.85,170.616c0,5.092-4.143,9.234-9.234,9.234
		s-9.234-4.143-9.234-9.234s4.143-9.234,9.234-9.234S179.85,165.524,179.85,170.616z"/>
</g>
<g>
</g>
<g>
</g>
<g>
</g>
<g>
</g>
<g>
</g>
<g>
</g>
<g>
</g>
<g>
</g>
<g>
</g>
<g>
</g>
<g>
</g>
<g>
</g>
<g>
</g>
<g>
</g>
<g>
</g>
</svg>
